<svg xmlns="http://www.w3.org/2000/svg" xmlns:xlink="http://www.w3.org/1999/xlink" version="1.1" x="0px" y="0px" viewBox="0 0 32 40" enable-background="new 0 0 32 32" xml:space="preserve"><g><path d="M16,2C8.28,2,2,8.28,2,16s6.28,14,14,14s14-6.28,14-14S23.72,2,16,2z M16,28C9.38,28,4,22.62,4,16S9.38,4,16,4   s12,5.38,12,12S22.62,28,16,28z"/><path d="M21.46,9.16l-7.33,4.67c-0.12,0.08-0.23,0.18-0.31,0.31l-4.67,7.33c-0.25,0.4-0.19,0.91,0.14,1.24C9.49,22.9,9.74,23,10,23   c0.19,0,0.37-0.05,0.54-0.16l7.33-4.67c0.12-0.08,0.23-0.18,0.31-0.31l4.67-7.33c0.25-0.4,0.19-0.91-0.14-1.24   C22.38,8.96,21.86,8.91,21.46,9.16z M16.61,16.61l-3.35,2.13l2.13-3.35l3.35-2.13L16.61,16.61z"/></g><text x="0" y="47" fill="#000000" font-size="5px" font-weight="bold" font-family="'Helvetica Neue', Helvetica, Arial-Unicode, Arial, Sans-serif">Created by Habib Ibnu</text><text x="0" y="52" fill="#000000" font-size="5px" font-weight="bold" font-family="'Helvetica Neue', Helvetica, Arial-Unicode, Arial, Sans-serif">from the Noun Project</text></svg>